<svg width="80" height="80" viewBox="0 0 80 80" fill="none" xmlns="http://www.w3.org/2000/svg">
<circle cx="40" cy="40" r="40" fill="#4336F5"/>
<path d="M32.8947 22.9214C31.7641 21.9696 29.9415 21.9696 28.811 22.9214L9.63847 39.0644C8.73867 39.822 8.73867 41.0459 9.63847 41.8035L28.811 57.9464C29.9415 58.8983 31.7641 58.8983 32.8947 57.9464C34.0252 56.9946 34.0252 55.4599 32.8947 54.508L16.1908 40.4242L32.9177 26.3404C34.0252 25.4079 34.0252 23.8539 32.8947 22.9214Z" fill="#FEF102"/>
<path d="M42.7388 67.9106C44.4541 69.374 47.1753 69.3239 48.8355 67.7983L76.9926 41.9265C78.314 40.7123 78.2786 38.7909 76.9134 37.6262L47.8227 12.8088C46.1074 11.3454 43.3862 11.3956 41.7259 12.9211C40.0657 14.4466 40.11 16.856 41.8254 18.3194L67.1709 39.9718L42.6055 62.5435C40.9791 64.0379 41.024 66.4778 42.7388 67.9106Z" fill="#A51B28"/>
</svg>
